HIERARCHY
ROOT Hips
{
	OFFSET	0.00	0.00	0.00
	CHANNELS 6 Xposition Yposition Zposition Zrotation Xrotation Yrotation
	JOINT LeftUpLeg
	{
		OFFSET	 0.126116	-0.065224	 0.014019
		CHANNELS 3 Zrotation Xrotation Yrotation
		JOINT LeftLeg
		{
			OFFSET	 0.000000	 0.569914	 0.000000
			CHANNELS 3 Zrotation Xrotation Yrotation
			JOINT LeftFoot
			{
				OFFSET	 0.000000	 0.544423	 0.000000
				CHANNELS 3 Zrotation Xrotation Yrotation
				JOINT LeftToeBase
				{
					OFFSET	 0.000000	 0.207117	 0.000000
					CHANNELS 3 Zrotation Xrotation Yrotation
					End Site
					{
						OFFSET	 0.000000	 0.207117	 0.000000
					}
				}
			}
		}
	}
	JOINT RightUpLeg
	{
		OFFSET	-0.124023	-0.065224	 0.008373
		CHANNELS 3 Zrotation Xrotation Yrotation
		JOINT RightLeg
		{
			OFFSET	 0.000000	 0.570047	 0.000000
			CHANNELS 3 Zrotation Xrotation Yrotation
			JOINT RightFoot
			{
				OFFSET	 0.000000	 0.544354	 0.000000
				CHANNELS 3 Zrotation Xrotation Yrotation
				JOINT RightToeBase
				{
					OFFSET	 0.000000	 0.207540	 0.000000
					CHANNELS 3 Zrotation Xrotation Yrotation
					End Site
					{
						OFFSET	 0.000000	 0.207540	 0.000000
					}
				}
			}
		}
	}
	JOINT Spine
	{
		OFFSET	 0.000184	 0.117403	 0.007763
		CHANNELS 3 Zrotation Xrotation Yrotation
		JOINT Spine1
		{
			OFFSET	 0.000000	 0.137269	 0.000000
			CHANNELS 3 Zrotation Xrotation Yrotation
			JOINT Spine2
			{
				OFFSET	 0.000000	 0.156879	 0.000000
				CHANNELS 3 Zrotation Xrotation Yrotation
				JOINT LeftShoulder
				{
					OFFSET	 0.080501	 0.160143	 0.002496
					CHANNELS 3 Zrotation Xrotation Yrotation
					JOINT LeftArm
					{
						OFFSET	 0.000000	 0.164363	 0.000000
						CHANNELS 3 Zrotation Xrotation Yrotation
						JOINT LeftForeArm
						{
							OFFSET	 0.000000	 0.364576	 0.000000
							CHANNELS 3 Zrotation Xrotation Yrotation
							JOINT LeftHand
							{
								OFFSET	 0.000000	 0.360812	 0.000000
								CHANNELS 3 Zrotation Xrotation Yrotation
								JOINT LeftHandIndex1
								{
									OFFSET	 0.000000	 0.086006	 0.000000
									CHANNELS 3 Zrotation Xrotation Yrotation
									JOINT LeftHandIndex2
									{
										OFFSET	 0.000000	 0.047237	 0.000000
										CHANNELS 3 Zrotation Xrotation Yrotation
										JOINT LeftHandIndex3
										{
											OFFSET	-0.004284	 0.038165	 0.000551
											CHANNELS 3 Zrotation Xrotation Yrotation
											End Site
											{
												OFFSET	-0.004284	 0.038165	 0.000551
											}
										}
									}
								}
							}
						}
					}
				}
				JOINT Neck
				{
					OFFSET	 0.000000	 0.176489	 0.000000
					CHANNELS 3 Zrotation Xrotation Yrotation
					JOINT Head
					{
						OFFSET	 0.000000	 0.077941	 0.001747
						CHANNELS 3 Zrotation Xrotation Yrotation
						End Site
						{
							OFFSET	 0.000000	 0.077941	 0.001747
						}
					}
				}
				JOINT RightShoulder
				{
					OFFSET	-0.080363	 0.159706	-0.000306
					CHANNELS 3 Zrotation Xrotation Yrotation
					JOINT RightArm
					{
						OFFSET	 0.000000	 0.164196	 0.000000
						CHANNELS 3 Zrotation Xrotation Yrotation
						JOINT RightForeArm
						{
							OFFSET	 0.000000	 0.365611	 0.000000
							CHANNELS 3 Zrotation Xrotation Yrotation
							JOINT RightHand
							{
								OFFSET	 0.000000	 0.360648	 0.000000
								CHANNELS 3 Zrotation Xrotation Yrotation
								JOINT RightHandIndex1
								{
									OFFSET	 0.000000	 0.069977	 0.000000
									CHANNELS 3 Zrotation Xrotation Yrotation
									JOINT RightHandIndex2
									{
										OFFSET	 0.000000	 0.052305	 0.000000
										CHANNELS 3 Zrotation Xrotation Yrotation
										JOINT RightHandIndex3
										{
											OFFSET	 0.009002	 0.042196	 0.000782
											CHANNELS 3 Zrotation Xrotation Yrotation
											End Site
											{
												OFFSET	 0.009002	 0.042196	 0.000782
											}
										}
									}
								}
							}
						}
					}
				}
			}
		}
	}
}
MOTION
Frames:    7
Frame Time: 0.03333334
-0.090828	 1.243047	-0.066478	 13.247630	-6.206981	-160.595300	-163.951200	 31.829180	 1.361281	 9.026736	-30.511950	 12.080010	 7.793292	 66.023080	-15.050540	 1.312960	 28.714700	-2.738067	 173.507600	 15.451180	 41.877060	-3.380095	-37.890180	 5.618825	 7.981716	 71.095640	-1.981032	-2.996098	 46.408650	 3.689243	-4.922200	 4.308997	 23.181530	-8.068361	 9.502491	 9.237001	 4.823950	-9.120184	-10.221100	-101.844900	 3.215523	 93.315700	 52.617130	 37.713700	-7.659227	 4.529144	-0.234166	-0.074627	 41.070710	 23.963230	 27.627370	 3.797623	 55.236980	-2.164953	-8.834006	 61.696570	 9.160089	 6.609774	 34.332680	 0.049115	 3.589472	-12.326900	-3.817415	 6.112410	-9.472184	-13.326130	 101.129900	 28.386850	-97.650570	-30.077690	 30.747830	-12.615390	-35.923770	-1.322339	-0.370147	 26.454660	 9.109966	 0.410422	-4.814942	 6.588156	-0.638427	 13.004000	 28.263630	-6.507129	-8.535289	 20.905290	-1.024310
-0.096015	 1.233245	-0.062747	 12.499760	-7.257017	-160.354600	-165.731800	 33.866020	 0.981477	 9.927938	-32.927020	 13.093730	 12.351050	 68.786520	-18.445480	 1.168985	 26.783380	-2.662421	 173.596200	 14.857670	 41.943460	-3.092299	-35.451420	 7.477278	 11.543310	 76.173480	-6.621353	-2.275499	 39.830440	 3.221571	-4.940205	 4.398536	 24.352330	-8.172832	 9.550497	 9.641597	 4.876643	-9.299014	-10.128170	-102.859500	 2.800030	 93.154010	 42.789630	 43.605940	-1.357335	 4.527335	-0.234039	-0.074632	 26.497960	 19.420150	 47.423630	 3.861009	 55.137850	-2.211366	-8.816397	 61.624460	 9.136496	 6.611719	 34.374160	 0.048911	 3.870605	-12.269810	-3.918251	 5.439324	-9.759144	-13.575660	 102.636700	 28.129120	-97.889920	-25.405640	 37.023480	-17.460720	-34.042490	-1.261739	-0.327705	 26.684240	 5.793781	-10.135590	-4.891227	 13.084290	-0.625643	 14.067050	 36.392530	-8.820746	-8.484915	 29.599760	-1.613171
-0.099825	 1.234781	-0.059080	 11.253110	-7.616634	-160.783600	-167.093500	 33.416670	 0.096768	 9.632465	-32.149750	 12.988870	 14.024140	 68.878860	-19.268500	 1.122894	 26.157410	-2.644316	 172.931100	 13.629490	 43.260590	-2.810879	-32.913670	 10.136330	 20.236680	 78.138030	-17.296100	-1.850214	 35.258770	 2.980038	-4.857693	 4.614831	 23.527280	-7.669530	 8.440319	 8.971849	 4.821250	-8.587843	-9.777694	-103.846700	 2.572051	 93.029570	 32.995470	 49.119610	 3.414518	 4.602523	-0.237911	-0.074265	 16.227730	 15.300660	 57.075650	 3.901650	 55.093370	-2.241409	-8.784587	 61.493070	 9.093777	 6.615989	 34.465010	 0.048445	 4.101713	-11.824420	-3.860595	 4.520211	-9.501818	-13.082480	 103.725400	 27.053240	-97.902050	-18.995790	 39.813340	-20.486650	-25.346910	-0.964939	-0.158443	 15.021760	 2.413779	-24.746260	-4.901343	 13.068460	-0.626379	 14.089880	 36.532140	-8.864288	-8.484152	 29.663120	-1.617671
-0.104967	 1.237128	-0.056750	 9.183126	-6.990250	-165.045600	-166.792400	 30.586770	-4.496912	 9.320911	-31.314810	 12.270250	 13.475220	 69.371130	-18.313100	 1.139323	 26.381280	-2.650713	 171.624200	 12.936010	 39.351220	-2.750566	-32.349970	 10.733750	 20.998760	 77.064080	-18.198610	-1.832759	 35.059390	 2.970767	-3.915480	 4.476543	 22.052440	-7.811431	 8.069773	 9.038286	 5.086230	-7.961378	-8.800120	-104.194100	 2.455221	 92.868330	 25.005540	 54.674250	 3.721742	 4.680505	-0.241924	-0.073961	 12.387400	 16.570710	 52.959880	 3.884071	 55.194320	-2.230444	-8.744763	 61.326460	 9.040103	 6.623571	 34.625990	 0.047588	 4.121289	-10.686750	-3.430256	 3.227100	-8.929995	-10.997100	 105.607100	 25.588470	-97.973560	-18.108500	 43.287750	-14.101690	-5.046374	-0.198246	 0.049851	-5.533550	-0.126964	-33.372380	-4.823761	 12.680970	-0.596528	 14.054520	 36.315350	-8.796752	-8.486723	 29.448050	-1.602401
-0.096939	 1.237810	-0.051553	 7.058237	-5.933630	-169.425400	-166.053700	 27.550820	-9.031046	 8.874560	-30.090970	 11.613520	 11.857610	 69.370930	-16.955840	 1.148973	 26.512430	-2.654499	 170.939100	 12.231830	 35.557760	-2.700608	-31.877180	 10.994830	 22.197730	 76.822010	-19.577540	-1.736950	 33.948260	 2.920828	-3.042482	 4.643694	 19.297430	-6.829139	 6.570448	 7.905773	 4.908730	-6.636039	-7.770747	-104.612100	 2.604864	 92.775880	 19.818400	 57.657260	 5.491459	 4.716280	-0.243732	-0.073824	 8.116777	 17.242260	 49.020360	 3.664858	 53.600000	-2.052591	-8.366968	 59.623870	 8.520341	 6.566733	 33.410100	 0.053391	 4.115493	-9.783412	-2.976645	 2.267832	-8.257372	-8.727660	 107.472800	 23.956610	-97.986490	-9.948397	 43.422360	-15.354730	-4.968459	-0.195264	 0.050099	-6.827921	 0.874576	-34.532700	-4.452801	 11.335570	-0.401372	 13.737490	 34.246460	-8.169784	-8.511379	 26.941910	-1.427509
-0.081884	 1.237863	-0.045935	 4.924152	-4.914886	-174.080100	-165.223000	 24.389220	-13.800730	 8.264832	-28.366530	 11.008080	 9.865835	 69.076370	-15.557100	 1.149117	 26.514430	-2.654554	 170.973200	 11.149190	 31.671110	-2.530155	-30.228010	 11.118630	 23.836420	 77.238200	-21.308290	-1.531081	 31.463790	 2.819254	-2.240957	 4.631890	 15.824580	-5.369264	 4.955133	 6.494078	 4.421899	-5.141580	-6.568794	-105.197400	 3.054842	 92.750760	 14.404140	 58.921090	 11.483900	 4.680821	-0.241961	-0.073948	 4.166948	 17.010930	 48.019660	 3.255317	 49.955040	-1.727777	-7.717332	 56.034060	 7.567927	 6.436226	 30.543900	 0.061235	 4.095673	-9.049105	-2.456819	 1.522074	-7.389070	-6.032631	 109.437000	 22.113550	-97.888370	-4.080692	 42.417050	-17.340730	-4.968805	-0.195270	 0.050087	 0.968888	 3.044600	-26.678640	-3.712034	 8.801724	 0.017541	 13.181570	 29.913140	-6.946127	-8.534891	 21.639930	-1.072293
-0.064238	 1.238488	-0.038615	 3.099385	-4.023113	-178.274800	-164.469200	 21.296310	-18.048970	 7.452484	-25.974850	 10.181340	 7.093777	 68.220590	-13.481450	 1.149295	 26.516890	-2.654623	 171.080900	 10.486070	 28.105460	-2.381562	-28.743530	 11.193140	 24.617320	 77.572950	-22.294100	-1.356484	 29.252730	 2.739618	-1.516101	 4.419467	 12.664770	-4.209203	 4.195915	 5.346496	 3.989944	-4.142870	-5.456850	-105.784700	 3.484742	 92.731990	 12.366830	 58.639070	 14.441920	 4.674832	-0.241660	-0.073978	 0.676999	 18.403940	 46.298080	 2.847446	 45.782100	-1.422661	-7.152920	 51.875920	 6.645954	 6.289915	 27.221310	 0.060879	 4.066571	-8.381764	-1.968977	 0.825849	-6.635281	-3.522322	 111.310800	 20.359670	-97.737770	-0.443231	 41.815990	-17.999360	-4.949871	-0.194526	 0.050188	 9.642096	 4.903568	-20.215190	-3.022996	 6.487710	 0.428804	 12.782340	 25.940760	-5.909883	-8.525811	 16.811600	-0.760660
